# xmcd
#
# Track frame offsets: 
#        150
#        29807
#        52316
#        73252
#        91212
#        108885
#        127512
#        147770
#        166933
#        198517
#        212604
#        231320
#        250541
#        266209
#        283935
#
# Disc length: 4115 seconds
#
# Revision: 1
# Processed by: cddbd v1.5.2PL0 Copyright (c) Steve Scherf et al.
# Submitted via: ExactAudioCopy v0.99pb5
#
DISCID=e210110f
DTITLE=Various Artist - LIVING THE BLUES - BLUES FEELIN´
DYEAR=2001
DGENRE=Blues
TTITLE0=TAJ MAHAL - Going To The River (1994)
TTITLE1=IRMA THOMAS - I Needed Somebody (1986)
TTITLE2=STEVIE RAY VAUGHAN - The Sky Is Crying (2000)
TTITLE3=LUCKY PETERSON - Over My Head (1989)
TTITLE4=FENTON ROBINSON - You Don't Know What Love Is (1974)
TTITLE5=JOHNNY COPELAND - Cut Off My Rght Arm (1989)
TTITLE6=RORY GALLAGHER - Loanshark Blues (1987)
TTITLE7=SON SEALS - Life Is Hard (1994)
TTITLE8=ALLMAN BROTHERS BAND - Get On With Your Life (1992)
TTITLE9=ERIC BIBB - Keep My Cool (1997)
TTITLE10=ROBBEN FORD - Talk To Your Daugther (1988)
TTITLE11=LONNIE MACK - Tough On Me, Tough On You (1986)
TTITLE12=MARCIA BALL - Something I Can't Do (1997)
TTITLE13=TINSLEY ELLIS - Crime Of Passion (1988)
TTITLE14=BLOOMFIELD and KOOPER - Really (1968)
EXTD=
EXTT0=
EXTT1=
EXTT2=
EXTT3=
EXTT4=
EXTT5=
EXTT6=
EXTT7=
EXTT8=
EXTT9=
EXTT10=
EXTT11=
EXTT12=
EXTT13=
EXTT14=
PLAYORDER=
